-vsync is deprecated. Use -fps_mode
Passing a number to -vsync is deprecated, use a string argument as described in the manual.
[h264 @ 0x5c1ceb90cf40] Reinit context to 720x1280, pix_fmt: yuv420p
Input #0, mov,mp4,m4a,3gp,3g2,mj2, from '/var/www/html/project/media/video/original/test.mp4':
  Metadata:
    major_brand     : mp42
    minor_version   : 1
    compatible_brands: isommp41mp42
    creation_time   : 2026-03-28T13:47:20.000000Z
  Duration: 00:00:02.84, start: 0.000000, bitrate: 11514 kb/s
  Stream #0:0[0x1](eng): Audio: aac (LC) (mp4a / 0x6134706D), 48000 Hz, stereo, fltp, 243 kb/s (default)
    Metadata:
      creation_time   : 2026-03-28T13:47:20.000000Z
      handler_name    : Core Media Audio
      vendor_id       : [0][0][0][0]
  Stream #0:1[0x2](und): Video: h264 (Main), 1 reference frame (avc1 / 0x31637661), yuv420p(tv, bt709, progressive, left), 720x1280, 10773 kb/s, SAR 1:1 DAR 9:16, 25 fps, 25 tbr, 25k tbn (default)
    Metadata:
      creation_time   : 2026-03-28T13:47:20.000000Z
      handler_name    : Core Media Video
      vendor_id       : [0][0][0][0]
Input #1, png_pipe, from '/var/www/html/project/static/images/templates/logo_vertical.png':
  Duration: N/A, bitrate: N/A
  Stream #1:0: Video: png, 1 reference frame, rgba(pc, gbr/unknown/unknown), 1920x1080 [SAR 2835:2835 DAR 16:9], 25 fps, 25 tbr, 25 tbn
[h264 @ 0x5c1ceb8f7c40] Reinit context to 1280x720, pix_fmt: yuv420p
Input #2, mov,mp4,m4a,3gp,3g2,mj2, from '/var/www/html/project/static/images/templates/Codino.mp4':
  Metadata:
    major_brand     : mp42
    minor_version   : 1
    compatible_brands: isommp41mp42
    creation_time   : 2021-07-11T07:02:58.000000Z
  Duration: 00:00:02.00, start: 0.000000, bitrate: 1007 kb/s
  Stream #2:0[0x1](ita): Audio: aac (LC) (mp4a / 0x6134706D), 44100 Hz, stereo, fltp, 102 kb/s (default)
    Metadata:
      creation_time   : 2021-07-11T07:02:58.000000Z
      handler_name    : Core Media Audio
      vendor_id       : [0][0][0][0]
  Stream #2:1[0x2](und): Video: h264 (High), 1 reference frame (avc1 / 0x31637661), yuv420p(tv, bt709, progressive, left), 1280x720 [SAR 1:1 DAR 16:9], 813 kb/s, 25 fps, 25 tbr, 25k tbn (default)
    Metadata:
      creation_time   : 2021-07-11T07:02:58.000000Z
      handler_name    : Core Media Video
      vendor_id       : [0][0][0][0]
[out#0/mp4 @ 0x5c1ced6c2180] Adding streams from explicit maps...
[out#0/mp4 @ 0x5c1ced6c2180] Creating output stream from an explicitly mapped complex filtergraph 0, output [v]
[vost#0:0/libx264 @ 0x5c1ced6c2b80] Created video stream from complex filtergraph 0:[concat]
[vost#0:0/libx264 @ 0x5c1ced6c2b80] 
[out#0/mp4 @ 0x5c1ced6c2180] Creating output stream from an explicitly mapped complex filtergraph 0, output [a]
[aost#0:1/aac @ 0x5c1ced6c4600] Created audio stream from complex filtergraph 0:[concat]
[aost#0:1/aac @ 0x5c1ced6c4600] 
Stream mapping:
  Stream #0:0 (aac) -> concat
  Stream #0:1 (h264) -> split:default
  Stream #1:0 (png) -> scale:default
  Stream #2:0 (aac) -> concat
  Stream #2:1 (h264) -> scale:default
  concat -> Stream #0:0 (libx264)
  concat -> Stream #0:1 (aac)
Press [q] to stop, [?] for help
[h264 @ 0x5c1ceb92c040] Reinit context to 720x1280, pix_fmt: yuv420p
[in#1/png_pipe @ 0x5c1ceb8e4280] EOF while reading input
[in#1/png_pipe @ 0x5c1ceb8e4280] Terminating demuxer thread
[vist#1:0/png @ 0x5c1ceb950e80] Decoder thread received EOF packet
[vist#1:0/png @ 0x5c1ceb950e80] Decoder returned EOF, finishing
[vist#1:0/png @ 0x5c1ceb950e80] Terminating decoder thread
[h264 @ 0x5c1cec874300] Reinit context to 1280x720, pix_fmt: yuv420p
[Parsed_scale_1 @ 0x5c1ced7ac600] w:1280 h:720 flags:'' interl:0
[Parsed_scale_4 @ 0x5c1ced7b9b80] w:-1 h:720 flags:'' interl:0
[Parsed_scale_7 @ 0x5c1ced7c72c0] w:1280 h:720 flags:'' interl:0
[Parsed_scale_9 @ 0x5c1ced7d4740] w:1280 h:720 flags:'' interl:0
[graph 0 input from stream 0:1 @ 0x5c1ced7a8680] w:720 h:1280 pixfmt:yuv420p tb:1/25000 fr:25/1 sar:1/1
[graph 0 input from stream 1:0 @ 0x5c1ceb92b380] w:1920 h:1080 pixfmt:rgba tb:1/25 fr:25/1 sar:2835/2835
[graph 0 input from stream 2:1 @ 0x5c1ced7a8c40] w:1280 h:720 pixfmt:yuv420p tb:1/25000 fr:25/1 sar:1/1
[graph_0_in_0_0 @ 0x5c1ced7a8dc0] tb:1/48000 samplefmt:fltp samplerate:48000 chlayout:stereo
[graph_0_in_2_0 @ 0x5c1ced7e3780] tb:1/44100 samplefmt:fltp samplerate:44100 chlayout:stereo
[Parsed_concat_12 @ 0x5c1ced7e1e00] auto-inserting filter 'auto_aresample_0' between the filter 'graph_0_in_2_0' and the filter 'Parsed_concat_12'
[Parsed_scale_1 @ 0x5c1ced7ac600] w:720 h:1280 fmt:yuv420p sar:1/1 -> w:1280 h:720 fmt:yuv420p sar:81/256 flags:0x00000004
[Parsed_boxblur_2 @ 0x5c1ced7b9700] luma_radius:36 luma_power:1 chroma_radius:18 chroma_power:1 alpha_radius:36 alpha_power:1 w:1280 chroma_w:640 h:720 chroma_h:360
[Parsed_setsar_3 @ 0x5c1ced7b98c0] w:1280 h:720 sar:81/256 dar:9/16 -> sar:1/1 dar:16/9
[Parsed_scale_4 @ 0x5c1ced7b9b80] w:720 h:1280 fmt:yuv420p sar:1/1 -> w:405 h:720 fmt:yuva420p sar:1/1 flags:0x00000004
[Parsed_setsar_5 @ 0x5c1ced7c6d80] w:405 h:720 sar:1/1 dar:9/16 -> sar:1/1 dar:9/16
[Parsed_overlay_6 @ 0x5c1ced7c7000] main w:1280 h:720 fmt:yuv420p overlay w:405 h:720 fmt:yuva420p
[Parsed_overlay_6 @ 0x5c1ced7c7000] [framesync @ 0x5c1ceb911b28] Selected 1/25000 time base
[Parsed_overlay_6 @ 0x5c1ced7c7000] [framesync @ 0x5c1ceb911b28] Sync level 2
[Parsed_scale_7 @ 0x5c1ced7c72c0] w:1920 h:1080 fmt:rgba sar:2835/2835 -> w:1280 h:720 fmt:yuva420p sar:1/1 flags:0x00000004
[Parsed_setsar_8 @ 0x5c1ced7d4480] w:1280 h:720 sar:1/1 dar:16/9 -> sar:1/1 dar:16/9
[Parsed_overlay_11 @ 0x5c1ced7e1b40] main w:1280 h:720 fmt:yuv420p overlay w:1280 h:720 fmt:yuva420p
[Parsed_overlay_11 @ 0x5c1ced7e1b40] [framesync @ 0x5c1ceb913ea8] Selected 1/25000 time base
[Parsed_overlay_11 @ 0x5c1ced7e1b40] [framesync @ 0x5c1ceb913ea8] Sync level 2
[Parsed_scale_9 @ 0x5c1ced7d4740] w:1280 h:720 fmt:yuv420p sar:1/1 -> w:1280 h:720 fmt:yuv420p sar:1/1 flags:(null)
[Parsed_setsar_10 @ 0x5c1ced7e1940] w:1280 h:720 sar:1/1 dar:16/9 -> sar:1/1 dar:16/9
[auto_aresample_0 @ 0x5c1ced7e4e40] ch:2 chl:stereo fmt:fltp r:44100Hz -> ch:2 chl:stereo fmt:fltp r:48000Hz
[Parsed_scale_1 @ 0x5c1ced7ac600] w:720 h:1280 fmt:yuv420p sar:1/1 -> w:1280 h:720 fmt:yuv420p sar:81/256 flags:0x00000004
    Last message repeated 2 times
[Parsed_scale_4 @ 0x5c1ced7b9b80] w:720 h:1280 fmt:yuv420p sar:1/1 -> w:405 h:720 fmt:yuva420p sar:1/1 flags:0x00000004
    Last message repeated 2 times
[Parsed_scale_7 @ 0x5c1ced7c72c0] w:1920 h:1080 fmt:rgba sar:2835/2835 -> w:1280 h:720 fmt:yuva420p sar:1/1 flags:0x00000004
    Last message repeated 2 times
[Parsed_scale_9 @ 0x5c1ced7d4740] w:1280 h:720 fmt:yuv420p sar:1/1 -> w:1280 h:720 fmt:yuv420p sar:1/1 flags:(null)
    Last message repeated 2 times
[libx264 @ 0x5c1ced6c2f40] using SAR=1/1
[libx264 @ 0x5c1ced6c2f40] using cpu capabilities: MMX2 SSE2Fast SSSE3 SSE4.2 AVX FMA3 BMI2 AVX2
[libx264 @ 0x5c1ced6c2f40] profile High, level 3.1, 4:2:0, 8-bit
[libx264 @ 0x5c1ced6c2f40] 264 - core 164 r3108 31e19f9 - H.264/MPEG-4 AVC codec - Copyleft 2003-2023 - http://www.videolan.org/x264.html - options: cabac=1 ref=1 deblock=1:0:0 analyse=0x3:0x113 me=hex subme=2 psy=1 psy_rd=1.00:0.00 mixed_ref=0 me_range=16 chroma_me=1 trellis=0 8x8dct=1 cqm=0 deadzone=21,11 fast_pskip=1 chroma_qp_offset=0 threads=22 lookahead_threads=5 sliced_threads=0 nr=0 decimate=1 interlaced=0 bluray_compat=0 constrained_intra=0 bframes=3 b_pyramid=2 b_adapt=1 b_bias=0 direct=1 weightb=1 open_gop=0 weightp=1 keyint=250 keyint_min=25 scenecut=40 intra_refresh=0 rc_lookahead=10 rc=crf mbtree=1 crf=18.0 qcomp=0.60 qpmin=0 qpmax=69 qpstep=4 ip_ratio=1.40 aq=1:1.00
Output #0, mp4, to '/var/www/html/project/media/video/watermarks/test.mp4':
  Metadata:
    major_brand     : mp42
    minor_version   : 1
    compatible_brands: isommp41mp42
    encoder         : Lavf60.16.100
  Stream #0:0: Video: h264, 1 reference frame (avc1 / 0x31637661), yuv420p(tv, bt709, progressive, left), 1280x720 (0x0) [SAR 1:1 DAR 16:9], q=2-31, 25 fps, 12800 tbn
    Metadata:
      encoder         : Lavc60.31.102 libx264
    Side data:
      cpb: bitrate max/min/avg: 0/0/0 buffer size: 0 vbv_delay: N/A
  Stream #0:1: Audio: aac (LC) (mp4a / 0x6134706D), 48000 Hz, stereo, fltp, delay 1024, 128 kb/s
    Metadata:
      encoder         : Lavc60.31.102 aac
[in#0/mov,mp4,m4a,3gp,3g2,mj2 @ 0x5c1ceb8d9e80] EOF while reading input
[in#0/mov,mp4,m4a,3gp,3g2,mj2 @ 0x5c1ceb8d9e80] Terminating demuxer thread
[aist#0:0/aac @ 0x5c1ceb8d93c0] Decoder thread received EOF packet
[aist#0:0/aac @ 0x5c1ceb8d93c0] Decoder returned EOF, finishing
[aist#0:0/aac @ 0x5c1ceb8d93c0] Terminating decoder thread
[Parsed_concat_12 @ 0x5c1ced7e1e00] EOF on in0:a0, 1 streams left in segment.
[vist#0:1/h264 @ 0x5c1ceb8d9540] Decoder thread received EOF packet
[vist#0:1/h264 @ 0x5c1ceb8d9540] Decoder returned EOF, finishing
[vist#0:1/h264 @ 0x5c1ceb8d9540] Terminating decoder thread
[Parsed_overlay_6 @ 0x5c1ced7c7000] [framesync @ 0x5c1ceb911b28] Sync level 1
[Parsed_overlay_6 @ 0x5c1ced7c7000] [framesync @ 0x5c1ceb911b28] Sync level 0
[Parsed_overlay_11 @ 0x5c1ced7e1b40] [framesync @ 0x5c1ceb913ea8] Sync level 0
[Parsed_concat_12 @ 0x5c1ced7e1e00] EOF on in0:v0, 0 streams left in segment.
[Parsed_concat_12 @ 0x5c1ced7e1e00] Segment finished at pts=2857333
[in#2/mov,mp4,m4a,3gp,3g2,mj2 @ 0x5c1ceb951000] EOF while reading input
[in#2/mov,mp4,m4a,3gp,3g2,mj2 @ 0x5c1ceb951000] Terminating demuxer thread
[aist#2:0/aac @ 0x5c1ceb94d300] Decoder thread received EOF packet
[aist#2:0/aac @ 0x5c1ceb94d300] Decoder returned EOF, finishing
[aist#2:0/aac @ 0x5c1ceb94d300] Terminating decoder thread
[vist#2:1/h264 @ 0x5c1ceba02480] Decoder thread received EOF packet
[vist#2:1/h264 @ 0x5c1ceba02480] Decoder returned EOF, finishing
[vist#2:1/h264 @ 0x5c1ceba02480] Terminating decoder thread
[Parsed_concat_12 @ 0x5c1ced7e1e00] EOF on in1:v0, 1 streams left in segment.
[Parsed_concat_12 @ 0x5c1ced7e1e00] EOF on in1:a0, 0 streams left in segment.
[Parsed_concat_12 @ 0x5c1ced7e1e00] Segment finished at pts=4876020
No more output streams to write to, finishing.
[out#0/mp4 @ 0x5c1ced6c2180] All streams finished
[out#0/mp4 @ 0x5c1ced6c2180] Terminating muxer thread
[AVIOContext @ 0x5c1ced78f8c0] Statistics: 525598 bytes written, 2 seeks, 5 writeouts
[out#0/mp4 @ 0x5c1ced6c2180] Output file #0 (/var/www/html/project/media/video/watermarks/test.mp4):
[out#0/mp4 @ 0x5c1ced6c2180]   Output stream #0:0 (video): 121 frames encoded; 121 packets muxed (450326 bytes); 
[out#0/mp4 @ 0x5c1ced6c2180]   Output stream #0:1 (audio): 229 frames encoded (234049 samples); 230 packets muxed (70174 bytes); 
[out#0/mp4 @ 0x5c1ced6c2180]   Total: 351 packets (520500 bytes) muxed
[out#0/mp4 @ 0x5c1ced6c2180] video:440kB audio:69kB subtitle:0kB other streams:0kB global headers:0kB muxing overhead: 0.978674%
frame=  121 fps= 65 q=-1.0 Lsize=     513kB time=00:00:04.86 bitrate= 864.5kbits/s speed= 2.6x    
[AVIOContext @ 0x5c1ceb914500] Statistics: 970 bytes written, 0 seeks, 5 writeouts
[libx264 @ 0x5c1ced6c2f40] frame I:2     Avg QP: 9.56  size: 30273
[libx264 @ 0x5c1ced6c2f40] frame P:45    Avg QP:12.69  size:  5863
[libx264 @ 0x5c1ced6c2f40] frame B:74    Avg QP:15.24  size:  1693
[libx264 @ 0x5c1ced6c2f40] consecutive B-frames: 13.2% 14.9%  2.5% 69.4%
[libx264 @ 0x5c1ced6c2f40] mb I  I16..4: 63.8% 19.0% 17.2%
[libx264 @ 0x5c1ced6c2f40] mb P  I16..4:  4.4%  1.8%  0.3%  P16..4: 13.6%  4.9%  2.0%  0.0%  0.0%    skip:73.0%
[libx264 @ 0x5c1ced6c2f40] mb B  I16..4:  2.9%  0.7%  0.0%  B16..8:  9.4%  3.0%  0.1%  direct: 2.5%  skip:81.4%  L0:51.8% L1:44.0% BI: 4.3%
[libx264 @ 0x5c1ced6c2f40] 8x8 transform intra:22.3% inter:37.2%
[libx264 @ 0x5c1ced6c2f40] coded y,uvDC,uvAC intra: 14.0% 19.6% 4.1% inter: 3.0% 4.0% 0.3%
[libx264 @ 0x5c1ced6c2f40] i16 v,h,dc,p: 44% 38%  8% 10%
[libx264 @ 0x5c1ced6c2f40] i8 v,h,dc,ddl,ddr,vr,hd,vl,hu: 11% 43% 26%  2%  4%  2%  7%  2%  3%
[libx264 @ 0x5c1ced6c2f40] i4 v,h,dc,ddl,ddr,vr,hd,vl,hu: 23% 25% 18%  5%  7%  5%  8%  3%  6%
[libx264 @ 0x5c1ced6c2f40] i8c dc,h,v,p: 71% 18%  8%  3%
[libx264 @ 0x5c1ced6c2f40] Weighted P-Frames: Y:26.7% UV:0.0%
[libx264 @ 0x5c1ced6c2f40] kb/s:743.20
[aac @ 0x5c1ced6c49c0] Qavg: 8885.367
[in#0/mov,mp4,m4a,3gp,3g2,mj2 @ 0x5c1ceb8d9e80] Input file #0 (/var/www/html/project/media/video/original/test.mp4):
[in#0/mov,mp4,m4a,3gp,3g2,mj2 @ 0x5c1ceb8d9e80]   Input stream #0:0 (audio): 136 packets read (88179 bytes); 134 frames decoded; 0 decode errors (137152 samples); 
[in#0/mov,mp4,m4a,3gp,3g2,mj2 @ 0x5c1ceb8d9e80]   Input stream #0:1 (video): 71 packets read (3824568 bytes); 71 frames decoded; 0 decode errors; 
[in#0/mov,mp4,m4a,3gp,3g2,mj2 @ 0x5c1ceb8d9e80]   Total: 207 packets (3912747 bytes) demuxed
[AVIOContext @ 0x5c1ceb914000] Statistics: 5731193 bytes read, 94 seeks
[in#1/png_pipe @ 0x5c1ceb8e4280] Input file #1 (/var/www/html/project/static/images/templates/logo_vertical.png):
[in#1/png_pipe @ 0x5c1ceb8e4280]   Input stream #1:0 (video): 1 packets read (93903 bytes); 1 frames decoded; 0 decode errors; 
[in#1/png_pipe @ 0x5c1ceb8e4280]   Total: 1 packets (93903 bytes) demuxed
[AVIOContext @ 0x5c1ceb903d40] Statistics: 93903 bytes read, 0 seeks
[in#2/mov,mp4,m4a,3gp,3g2,mj2 @ 0x5c1ceb951000] Input file #2 (/var/www/html/project/static/images/templates/Codino.mp4):
[in#2/mov,mp4,m4a,3gp,3g2,mj2 @ 0x5c1ceb951000]   Input stream #2:0 (audio): 89 packets read (26579 bytes); 87 frames decoded; 0 decode errors (89024 samples); 
[in#2/mov,mp4,m4a,3gp,3g2,mj2 @ 0x5c1ceb951000]   Input stream #2:1 (video): 50 packets read (203365 bytes); 50 frames decoded; 0 decode errors; 
[in#2/mov,mp4,m4a,3gp,3g2,mj2 @ 0x5c1ceb951000]   Total: 139 packets (229944 bytes) demuxed
[AVIOContext @ 0x5c1ceb9a9540] Statistics: 1629219 bytes read, 37 seeks
